<?xml version="1.0" encoding="UTF-8"?><svg id="Layer_1" xmlns="http://www.w3.org/2000/svg" viewBox="0 0 425.2 128.69"><defs><style>.cls-1{fill:#fff;}.cls-2{fill:#409;}</style></defs><path class="cls-2" d="M53.64,0C35.05,0,17.07,2.54,0,7.3V52.96c0,10.16,1.4,19.55,4.17,27.9,2.58,7.78,6.42,14.91,11.42,21.18,8.65,10.85,20.87,19.46,37.34,26.34l.72,.3,.72-.3c16.47-6.88,28.69-15.5,37.34-26.34,5-6.27,8.84-13.39,11.42-21.18,2.77-8.35,4.17-17.74,4.17-27.9V7.3C90.23,2.54,72.24,0,53.64,0Z"/><path class="cls-1" d="M28.12,78.05v-1.74l-3.41,2.48-1.14-1.57h-.01c-2.24,2.28-4.22,4.81-5.87,7.53l-.02,.03h.04c3.1-.74,6.12-1.84,8.97-3.27h.02s-1.14-1.58-1.14-1.58l2.59-1.88Z"/><polygon class="cls-1" points="84.94 36.77 87.37 35.01 86.54 33.87 84.12 35.63 84.65 32.27 78.25 37.97 77.91 40.14 70.37 45.62 72.76 45.62 78.74 41.28 80.91 41.62 88.3 37.3 84.94 36.77"/><path class="cls-1" d="M53.65,82.33s0,0,0,0c-.68,0-1.35-.1-1.99-.29l-16.34,11.87-1.14-1.57h-.01c-2.24,2.28-4.22,4.81-5.87,7.53l-.02,.03h.04c3.1-.74,6.12-1.84,8.97-3.27h.02s-1.14-1.58-1.14-1.58l17.51-12.72Z"/><polygon class="cls-1" points="95.55 51.89 97.97 50.13 97.14 48.99 94.72 50.75 95.25 47.39 88.86 53.09 88.51 55.26 79.17 62.05 79.17 63.79 89.34 56.4 91.51 56.74 98.91 52.42 95.55 51.89"/><path class="cls-1" d="M42.41,79.08h-2.39l-10.01,7.27-1.14-1.57h-.01c-2.24,2.28-4.22,4.81-5.87,7.53l-.02,.03h.04c3.1-.74,6.12-1.84,8.97-3.27h.02s-1.14-1.58-1.14-1.58l11.58-8.41Z"/><polygon class="cls-1" points="90.25 44.33 92.67 42.57 91.84 41.43 89.42 43.19 89.95 39.83 83.55 45.53 83.21 47.7 79.17 50.64 79.17 52.37 84.04 48.84 86.21 49.18 93.6 44.86 90.25 44.33"/><path class="cls-1" d="M73.94,11.64s-.29-.04-.73-.05c0,0,0,0,0,0-1.03-.02-2.92,.14-4.18,1.37-.47,.46-.62,1.09-.62,1.69,0,0,0,0,0,0,0,.05,0,.11,0,.16,0,.03,0,.07,0,.1,0,.02,0,.03,0,.05,0,.05,0,.1,.01,.14,0,0,0,0,0,0,.01,.11,.03,.23,.05,.33-.18-.2-.41-.36-.68-.48-2.1-.87-4.41,.25-4.41,.25,0,0,.54,2.62,2.93,3.31,.58,.17,1.15,.08,1.64-.08l-.5,.89c-.64,1.14-1.93,1.75-3.22,1.52-1.65-.3-2.75-1.9-2.45-3.55l-.69-.13-.69-.13c-.15,.8-.6,1.5-1.27,1.96-.67,.46-1.48,.64-2.28,.49-1.45-.27-2.5-1.53-2.5-3v-1.9c.41,.45,.99,.88,1.74,.88,2.28,0,3.98-1.93,3.98-1.93,0,0-1.71-1.93-3.98-1.93-.28,0-.53,.06-.76,.16,.45-.43,.81-.99,.81-1.66,0-2.54-2.49-4.44-2.49-4.44,0,0-2.49,1.9-2.49,4.44,0,.68,.36,1.23,.81,1.66-.23-.1-.48-.16-.76-.16-2.28,0-3.98,1.93-3.98,1.93,0,0,1.71,1.93,3.98,1.93,.75,0,1.33-.43,1.74-.88v1.9c0,1.47-1.05,2.73-2.5,3-.8,.15-1.61-.03-2.28-.49-.67-.46-1.12-1.16-1.27-1.96l-.69,.13-.69,.13c.3,1.65-.79,3.24-2.45,3.55-1.29,.24-2.58-.37-3.22-1.52l-.5-.89c.48,.16,1.06,.25,1.64,.08,2.39-.68,2.93-3.31,2.93-3.31,0,0-2.31-1.12-4.41-.25-.27,.11-.5,.28-.68,.48,.02-.11,.03-.22,.05-.33,0,0,0,0,0,0,0-.05,0-.1,.01-.14,0-.02,0-.03,0-.05,0-.03,0-.07,0-.1,0-.05,0-.11,0-.16,0,0,0,0,0,0,0-.61-.15-1.23-.62-1.69-1.27-1.24-3.15-1.39-4.18-1.37,0,0,0,0,0,0-.45,0-.73,.05-.73,.05,0,0-.06,.5-.02,1.2,1.25,1.34,2.37,2.76,3.36,4.26,1.37,2.07,2.5,4.29,3.36,6.61l2.71,1.56-1.48,2.57c.24,1.06,.42,2.15,.56,3.24h0s.04,0,.06,.01h0s0,0,0,0c3.83,.78,7.75,1.18,11.73,1.18h0s.01,0,.02,0,.01,0,.02,0h0c3.98,0,7.9-.4,11.73-1.18,0,0,0,0,0,0h0s.04,0,.06-.01h0c.13-1.09,.32-2.18,.56-3.24l-1.48-2.57,2.71-1.56c.86-2.32,1.98-4.54,3.36-6.61,.99-1.5,2.12-2.92,3.36-4.26,.04-.71-.02-1.2-.02-1.2Zm-13.54,10.89c.97,0,1.76,.79,1.76,1.76s-.79,1.76-1.76,1.76-1.76-.79-1.76-1.76,.79-1.76,1.76-1.76Zm-6.76-1.83l2.49,2.49-2.49,2.49-2.49-2.49,2.49-2.49Zm-6.77,1.83c.97,0,1.76,.79,1.76,1.76s-.79,1.76-1.76,1.76-1.76-.79-1.76-1.76,.79-1.76,1.76-1.76Zm17.31,7.38c-3.45,.64-6.97,.97-10.53,.97s-7.08-.32-10.53-.96c-.03-.2-.06-.39-.09-.58,3.48-.65,7.02-.98,10.62-.98s7.15,.33,10.63,.98c-.03,.19-.06,.39-.09,.58Z"/><polygon class="cls-1" points="53.65 48.1 33.86 33.72 31.69 34.06 24.29 29.74 27.65 29.21 25.23 27.45 26.05 26.31 28.48 28.07 27.95 24.71 34.34 30.41 34.69 32.58 53.65 46.36 72.61 32.58 72.95 30.41 79.35 24.71 78.82 28.07 81.24 26.31 82.07 27.45 79.64 29.21 83 29.74 75.61 34.06 73.43 33.72 53.65 48.1"/><path class="cls-1" d="M75.63,49.61l.03,25.95h-18.43l-.13,.54c-.39,1.6-1.8,2.71-3.45,2.71s-3.06-1.11-3.45-2.71l-.13-.54H31.64l.03-25.95h-1.43v27.36h18.76c.71,1.94,2.55,3.25,4.65,3.25s3.95-1.31,4.65-3.25h18.76v-27.36h-1.43Z"/><path class="cls-1" d="M89.62,84.75c-1.65-2.72-3.63-5.25-5.87-7.52h-.01s-1.14,1.56-1.14,1.56l-3.41-2.48v1.74l2.59,1.88-1.14,1.57h.02c2.85,1.44,5.87,2.54,8.97,3.27h.04s-.02-.02-.02-.02Z"/><polygon class="cls-1" points="34.53 45.62 36.93 45.62 29.38 40.14 29.04 37.97 22.64 32.27 23.18 35.63 20.75 33.87 19.93 35.01 22.35 36.77 18.99 37.3 26.39 41.62 28.56 41.28 34.53 45.62"/><polygon class="cls-1" points="28.12 50.64 24.08 47.7 23.74 45.53 17.34 39.83 17.88 43.19 15.45 41.43 14.63 42.57 17.05 44.33 13.69 44.86 21.08 49.18 23.26 48.84 28.12 52.37 28.12 50.64"/><path class="cls-1" d="M84.31,92.31c-1.65-2.72-3.63-5.25-5.87-7.52h-.01s-1.14,1.56-1.14,1.56l-10.01-7.27h-2.39l11.58,8.41-1.14,1.57h.02c2.85,1.44,5.87,2.54,8.97,3.27h.04s-.02-.02-.02-.02Z"/><polygon class="cls-1" points="28.12 62.05 18.78 55.26 18.44 53.09 12.04 47.39 12.57 50.75 10.15 48.99 9.32 50.13 11.75 51.89 8.39 52.42 15.78 56.74 17.96 56.4 28.12 63.79 28.12 62.05"/><path class="cls-1" d="M73.14,92.35h-.01s-1.14,1.56-1.14,1.56l-16.34-11.87c-.64,.19-1.32,.29-1.99,.29,0,0,0,0,0,0l17.51,12.72-1.14,1.57h.02c2.85,1.44,5.87,2.54,8.97,3.27h.04s-.02-.02-.02-.02c-1.65-2.72-3.63-5.25-5.87-7.52Z"/><path class="cls-1" d="M28.12,66.64v-1.74l-8.71,6.33-1.14-1.57h-.01c-2.24,2.28-4.22,4.81-5.87,7.53l-.02,.03h.04c3.1-.74,6.12-1.84,8.97-3.27h.02s-1.14-1.58-1.14-1.58l7.89-5.73Z"/><path class="cls-1" d="M94.92,77.2c-1.65-2.72-3.63-5.25-5.87-7.52h-.01s-1.14,1.56-1.14,1.56l-8.71-6.33v1.74l7.89,5.73-1.14,1.57h.02c2.85,1.44,5.87,2.54,8.97,3.27h.04s-.02-.02-.02-.02Z"/><path class="cls-1" d="M63.15,111.09c.22-.68,.88-2.7,1.1-3.38,.39-1.21-.27-2.52-1.48-2.91l-3.19-.58,2.24-2.35c.75-1.03,.52-2.48-.51-3.23-.58-.42-2.3-1.67-2.88-2.09-.41-.3-.89-.44-1.36-.44-.71,0-1.42,.33-1.87,.95l-1.54,2.86-1.54-2.86c-.45-.62-1.16-.95-1.87-.95-.47,0-.95,.14-1.36,.44-.58,.42-2.3,1.67-2.88,2.09-1.03,.75-1.26,2.2-.51,3.23l2.24,2.35-3.19,.58c-1.21,.39-1.88,1.7-1.48,2.91,.22,.68,.88,2.7,1.1,3.38,.32,.98,1.22,1.6,2.2,1.6,.24,0,.48-.04,.71-.11l2.92-1.41-.43,3.22c0,1.28,1.03,2.31,2.31,2.31h3.55c1.28,0,2.31-1.03,2.31-2.31l-.43-3.22,2.92,1.41c.24,.08,.48,.11,.71,.11,.97,0,1.88-.62,2.2-1.6Zm-7.23-2.18c-.08,0-.17,0-.25,0-.4,1.58-2.01,3.17-2.01,3.17,0,0-1.61-1.58-2.01-3.17-.08,0-.17,0-.25,0-1.58,0-3.38-.94-3.38-.94,0,0,1.01-2.02,2.39-2.89-.61-1.52-.24-3.74-.24-3.74,0,0,2.23,.34,3.49,1.38,1.25-1.05,3.49-1.38,3.49-1.38,0,0,.37,2.23-.24,3.74,1.38,.87,2.39,2.89,2.39,2.89,0,0-1.81,.94-3.38,.94Z"/><circle class="cls-1" cx="53.66" cy="106.14" r="1.52"/><path class="cls-1" d="M44.07,103.31l.1-.03,.1-.02,.34-.06-.24-.25-.07-.08-.06-.09c-.36-.5-.59-1.06-.69-1.65-1.12,.28-2.04,.75-2.09,.78l-.3,.16,.15,.31c.03,.07,.5,.99,1.24,1.86,.42-.41,.93-.74,1.53-.93Z"/><path class="cls-1" d="M53.38,96.14l.06,.09,.05,.09,.16,.3,.16-.3,.05-.09,.06-.09c.36-.49,.83-.89,1.36-1.16-.61-.97-1.34-1.7-1.39-1.75l-.24-.24-.24,.24c-.05,.05-.78,.78-1.39,1.75,.53,.27,1,.67,1.36,1.16Z"/><path class="cls-1" d="M65.86,101.92c-.05-.03-.98-.5-2.1-.78-.09,.58-.32,1.15-.69,1.65l-.06,.09-.07,.08-.24,.25,.34,.06,.1,.02,.1,.03c.6,.19,1.11,.52,1.53,.93,.74-.88,1.2-1.8,1.24-1.86l.15-.31-.3-.16Z"/><path class="cls-1" d="M60.95,114.25c-.41,0-.81-.06-1.2-.19l-.1-.03-.09-.05-.31-.15,.05,.34v.1s.01,.11,.01,.11c0,.63-.15,1.22-.41,1.74,1.06,.43,2.08,.59,2.15,.6l.34,.05,.06-.34c.01-.07,.18-1.09,.09-2.23-.19,.03-.39,.05-.59,.05Z"/><path class="cls-1" d="M48,114.38v-.21s.06-.34,.06-.34l-.31,.15-.09,.05-.1,.03c-.39,.13-.79,.19-1.2,.19-.2,0-.39-.02-.59-.05-.08,1.14,.08,2.16,.09,2.23l.06,.34,.34-.05c.07-.01,1.09-.17,2.15-.6-.26-.52-.41-1.12-.41-1.74Z"/><path class="cls-1" d="M50.19,59.21c-.3,0-.49,.38-.52,1.08h.57c.31,0,.39-.09,.39-.41,0-.41-.17-.67-.45-.67Z"/><path class="cls-1" d="M36.34,58.09h-.2c-.01,.59-.01,1.18-.01,1.79v.24c0,.63,0,1.23,.01,1.82h.19c.82,0,1.3-.72,1.3-1.93s-.47-1.93-1.3-1.93Z"/><path class="cls-1" d="M48.34,47.03h-15.27v25.77h15.27c1.85,0,3.5,.84,4.61,2.15v-23.31c0-2.54-2.07-4.61-4.61-4.61Zm-8.02,9.99c.38,0,.67,.27,.67,.64s-.29,.63-.67,.63-.67-.27-.67-.63,.29-.64,.67-.64Zm-3.99,5.47h-2.1v-.49l.55-.06c.01-.58,.01-1.17,.01-1.79v-.25c0-.58,0-1.18-.01-1.77l-.55-.06v-.49h2.23c1.57,0,2.55,.94,2.55,2.45s-1.03,2.47-2.68,2.47Zm5.01,0h-2.05v-.44l.4-.09c0-.34,0-.78,0-1.06v-.35c0-.39,0-.61-.02-.88l-.46-.07v-.37l1.6-.51,.17,.11-.02,1.09v.97c0,.29,0,.73,0,1.08l.37,.07v.44Zm1.51,.11c-.48,0-.91-.11-1.3-.34l-.03-.02,.02-.98h.68l.13,.74c.17,.06,.33,.09,.5,.09,.4,0,.6-.13,.6-.38,0-.19-.1-.33-.58-.47l-.4-.12c-.6-.18-.92-.57-.92-1.14,0-.75,.64-1.25,1.58-1.25,.4,0,.75,.09,1.18,.31l.03,.02-.06,.88h-.68l-.15-.64c-.1-.03-.21-.05-.36-.05s-.5,.03-.5,.36c0,.14,.04,.28,.58,.44l.36,.1c.69,.2,1.01,.58,1.01,1.19,0,.79-.64,1.27-1.71,1.27Zm5.34-2.73c-.09,.29-.26,.42-.55,.42-.21,0-.57-.1-.61-.74l-.05-.32s-.06,0-.09,0c-.38,0-.83,.35-.83,1.33,0,.79,.36,1.26,.97,1.26,.3,0,.55-.12,.78-.39l.03-.04,.33,.29-.02,.04c-.29,.59-.82,.91-1.55,.91-1.3,0-1.88-.96-1.88-1.92,0-1.15,.83-1.95,2.03-1.95,.77,0,1.36,.47,1.42,1.12h0s0,.02,0,.02Zm2.42,1.93c.33,0,.6-.12,.85-.38l.04-.04,.32,.3-.02,.04c-.3,.59-.84,.88-1.58,.88-1.14,0-1.88-.76-1.88-1.93,0-1.27,.97-1.94,1.93-1.94s1.57,.63,1.57,1.6c0,.15-.01,.27-.05,.4v.04h-2.11c.06,.65,.39,1.02,.93,1.02Z"/><path class="cls-1" d="M58.43,58.09h-.2c-.01,.59-.01,1.18-.01,1.79v.24c0,.63,0,1.23,.01,1.82h.19c.82,0,1.3-.72,1.3-1.93s-.47-1.93-1.3-1.93Z"/><path class="cls-1" d="M63.27,59.21c-.39,0-.57,.46-.57,1.45,0,1.29,.33,1.44,.57,1.44,.38,0,.56-.46,.56-1.44s-.18-1.45-.56-1.45Z"/><path class="cls-1" d="M58.96,47.03c-2.54,0-4.61,2.07-4.61,4.61v23.31c1.1-1.31,2.76-2.15,4.61-2.15h15.27v-25.77h-15.27Zm-.54,15.45h-2.1v-.49l.55-.06c.01-.58,.01-1.17,.01-1.79v-.25c0-.58,0-1.18-.01-1.77l-.55-.06v-.49h2.23c1.57,0,2.55,.94,2.55,2.45s-1.03,2.47-2.68,2.47Zm4.85,.11c-1.16,0-1.91-.77-1.91-1.95,0-1.11,.8-1.92,1.91-1.92s1.91,.79,1.91,1.92-.75,1.95-1.91,1.95Zm5.58-2.73c-.09,.29-.26,.42-.55,.42-.21,0-.57-.1-.61-.74l-.05-.32s-.06,0-.09,0c-.38,0-.83,.35-.83,1.33,0,.79,.36,1.26,.97,1.26,.3,0,.55-.12,.78-.39l.03-.04,.32,.29-.02,.04c-.29,.59-.82,.91-1.55,.91-1.3,0-1.88-.96-1.88-1.92,0-1.15,.83-1.95,2.03-1.95,.77,0,1.37,.47,1.42,1.12h0s0,.02,0,.02Zm2.42,1.93c.33,0,.6-.12,.85-.38l.04-.04,.32,.3-.02,.04c-.3,.59-.84,.88-1.58,.88-1.14,0-1.88-.76-1.88-1.93,0-1.27,.97-1.94,1.93-1.94s1.57,.63,1.57,1.6c0,.15-.01,.27-.05,.4v.04h-2.11c.06,.65,.39,1.02,.93,1.02Z"/><path class="cls-1" d="M70.85,59.21c-.3,0-.49,.38-.52,1.08h.57c.31,0,.39-.09,.39-.41,0-.41-.17-.67-.45-.67Z"/><path class="cls-2" d="M311.58,73.24c3.35,0,5.98-2.39,5.98-5.66s-2.63-5.74-5.98-5.74-6.06,2.31-6.06,5.74,2.63,5.66,6.06,5.66Z"/><path class="cls-2" d="M147.24,12h12.84v2.51l-4.55,.54v17.55c0,11.29-5.35,15.79-13.43,15.79s-13.32-4.12-13.32-14.29v-5.83c0-4.39,0-8.88-.11-13.32l-4.17-.43v-2.51h16.27v2.51l-4.92,.54c-.11,4.33-.11,8.78-.11,13.22v4.17c0,8.72,3,11.61,8.24,11.61s8.45-3.32,8.45-12.15V15.1l-5.19-.59v-2.51Z"/><path class="cls-2" d="M160.73,45.28l3.48-.7c.05-2.62,.05-6.05,.05-8.35v-2.84c0-2.94-.05-4.28-.16-6.42l-3.75-.48v-2.03l8.94-3.37,.86,.54,.37,4.12c2.73-3.1,5.83-4.66,9.1-4.66,4.66,0,7.28,2.94,7.28,9.58v5.56c0,2.41,0,5.78,.05,8.4l3.26,.64v2.19h-13.22v-2.19l3.42-.7c.05-2.62,.05-5.94,.05-8.35v-5.08c0-4.17-1.07-5.56-3.75-5.56-1.87,0-3.85,.86-5.99,2.62v8.03c0,2.35,0,5.73,.05,8.4l3.16,.64v2.19h-13.22v-2.19Z"/><path class="cls-2" d="M192.93,45.28l3.53-.7c.05-2.62,.05-6.05,.05-8.35v-2.51c0-2.94-.05-4.6-.16-6.74l-3.8-.48v-2.03l9.63-3.37,.86,.54-.16,7.54v7.06c0,2.3,0,5.73,.05,8.4l3.26,.64v2.19h-13.27v-2.19Z"/><path class="cls-2" d="M223.52,21.84h10.17v2.25l-3,.64-8.78,22.96h-3.16l-9.69-23.12-2.78-.48v-2.25h14.07v2.25l-4.12,.64,5.89,15.52,5.3-15.46-3.91-.7v-2.25Z"/><path class="cls-2" d="M234.1,34.79c0-8.56,6.26-13.7,13-13.7,6.31,0,10.49,4.28,10.49,10.76,0,1.23-.11,2.14-.32,2.94h-16.37c.27,6.15,3.53,9.2,8.03,9.2,3.16,0,5.19-1.39,6.96-3.37l1.55,1.39c-2.09,3.96-5.73,6.21-10.7,6.21-7.49,0-12.63-5.03-12.63-13.43Zm6.85-2.51h7.33c2.57,0,3.21-1.12,3.21-3.05,0-3.26-2.14-5.56-4.76-5.56s-5.35,2.25-5.78,8.61Z"/><path class="cls-2" d="M283.99,45.98l-.05-6.21h3.59l.96,4.98c1.28,.54,2.62,.8,4.17,.8,3.64,0,5.4-1.34,5.4-3.64,0-1.98-1.28-3.1-4.71-4.23l-2.68-.91c-4.01-1.28-6.47-3.75-6.47-7.54,0-4.44,3.59-8.13,10.17-8.13,3.05,0,5.46,.8,7.97,2.19l-.27,5.62h-3.53l-.96-4.49c-1.02-.43-2.03-.64-3.32-.64-2.84,0-4.49,1.28-4.49,3.37,0,1.93,1.07,2.89,4.71,4.12l2.14,.64c5.19,1.77,7.22,4.39,7.22,8.08,0,4.82-4.01,8.24-11.24,8.24-3.26,0-5.89-.75-8.61-2.25Z"/><path class="cls-2" d="M306.03,45.28l3.53-.7c.05-2.62,.05-6.05,.05-8.35v-2.51c0-2.94-.05-4.6-.16-6.74l-3.8-.48v-2.03l9.63-3.37,.86,.54-.16,7.54v7.06c0,2.3,0,5.73,.05,8.4l3.26,.64v2.19h-13.27v-2.19Z"/><path class="cls-2" d="M323.6,41.48c0-1.61,.05-2.89,.05-4.98v-11.4h-3.96v-2.78l4.33-.54,2.03-7.33h4.33l-.21,7.38h6.42v3.26h-6.47v15.79c0,2.62,1.12,3.8,2.84,3.8,1.07,0,2.03-.43,3.26-1.34l1.28,1.34c-1.39,2.25-3.75,3.53-7.06,3.53-4.28,0-6.85-2.03-6.85-6.74Z"/><path class="cls-2" d="M379.3,34.68c0-8.56,5.99-13.59,12.9-13.59s12.95,4.98,12.95,13.59-5.73,13.54-12.95,13.54-12.9-5.03-12.9-13.54Zm18.84,.05c0-7.38-2.09-11.02-5.94-11.02s-5.89,3.64-5.89,11.02,2.03,10.86,5.89,10.86,5.94-3.48,5.94-10.86Z"/><path class="cls-2" d="M125.63,117.1l.48-11.48h6.14l1.59,9.65c2.47,1.12,4.86,1.67,8.05,1.67,6.62,0,10.61-3.35,10.61-8.61,0-4.71-2.55-6.86-8.37-9.25l-3.27-1.36c-8.77-3.75-14.27-8.45-14.27-16.91,0-9.41,7.74-15.07,18.9-15.07,5.5,0,10.37,1.59,14.04,4.15l-.56,10.77h-6.06l-1.59-9.25c-1.91-.88-3.75-1.28-5.98-1.28-5.34,0-9.57,2.95-9.57,8.13,0,4.63,2.95,7.18,8.21,9.33l3.43,1.44c10.37,4.39,14.43,8.85,14.43,16.67,0,9.41-7.5,15.63-19.86,15.63-5.98,0-12.2-1.59-16.35-4.23Z"/><path class="cls-2" d="M164.76,116.7l5.26-1.04c.08-3.91,.08-9.01,.08-12.44v-34.21l-5.82-.8v-3.11l14.27-3.59,1.2,.72-.32,11.24v14.27c4.07-4.71,8.77-7.1,13.64-7.1,6.94,0,10.93,4.39,10.93,14.27v8.29c0,3.59,0,8.61,.08,12.52l4.86,.96v3.27h-19.7v-3.27l5.1-1.04c.08-3.91,.08-8.85,.08-12.44v-7.58c0-6.22-1.52-8.29-5.5-8.29-3.03,0-5.98,1.44-9.25,4.55v11.32c0,3.51,0,8.53,.08,12.52l4.71,.96v3.27h-19.7v-3.27Z"/><path class="cls-2" d="M211.35,101.07c0-12.76,9.33-20.42,19.38-20.42,9.41,0,15.63,6.38,15.63,16.03,0,1.83-.16,3.19-.48,4.39h-24.4c.4,9.17,5.26,13.72,11.96,13.72,4.71,0,7.74-2.07,10.37-5.02l2.31,2.07c-3.11,5.9-8.53,9.25-15.95,9.25-11.16,0-18.82-7.5-18.82-20.02Zm10.21-3.75h10.93c3.83,0,4.78-1.67,4.78-4.55,0-4.86-3.19-8.29-7.1-8.29s-7.97,3.35-8.61,12.84Z"/><path class="cls-2" d="M322.56,101.07c0-12.76,9.33-20.42,19.38-20.42,9.41,0,15.63,6.38,15.63,16.03,0,1.83-.16,3.19-.48,4.39h-24.4c.4,9.17,5.26,13.72,11.96,13.72,4.71,0,7.74-2.07,10.37-5.02l2.31,2.07c-3.11,5.9-8.53,9.25-15.95,9.25-11.16,0-18.82-7.5-18.82-20.02Zm10.21-3.75h10.93c3.83,0,4.78-1.67,4.78-4.55,0-4.86-3.19-8.29-7.1-8.29s-7.97,3.35-8.61,12.84Z"/><path class="cls-2" d="M360.43,116.7l5.42-1.04c.08-4.15,.16-8.29,.16-12.44v-34.21l-5.82-.8v-3.11l14.51-3.59,1.2,.72-.32,11.24v29.75c0,4.15,.08,8.29,.16,12.44l5.42,1.04v3.27h-20.73v-3.27Z"/><path class="cls-2" d="M410.68,115.82c-2.95,3.43-6.46,5.26-11.16,5.26-9.41,0-16.11-7.58-16.11-19.86s7.89-20.57,17.3-20.57c4.07,0,7.18,1.44,10.05,4.78v-16.43l-6.22-.8v-3.11l14.59-3.59,1.2,.72-.32,11.24v42.35l5.18,.88v3.27l-13.88,.88-.64-5.02Zm-7.34-.4c2.79,0,4.94-1.12,7.02-3.27v-22.89c-2.47-2.15-4.55-3.03-6.94-3.03-5.34,0-9.81,4.63-9.81,14.83,0,9.65,4.07,14.35,9.73,14.35Z"/><path class="cls-2" d="M278.37,21.09c-3.53-.08-6.14,2.05-8.01,6.85l-.54-6.31-.86-.54-8.94,3.37v2.03l3.75,.48c.11,2.14,.16,3.48,.16,6.42v2.84c0,2.3,0,5.73-.05,8.4l-3.42,.64v2.19h14.39v-2.19l-4.39-.86c-.05-2.62-.05-5.94-.05-8.19v-3.91c.8-2.84,2.37-5.36,4.32-6.78h0c.4,1.55,1.85,2.61,3.64,2.61,2.07,0,3.7-1.48,3.7-3.51s-1.63-3.51-3.7-3.56Z"/><path class="cls-2" d="M316.53,115.74c-.08-3.99-.08-9.01-.08-12.52v-10.53l.23-12.43-1.19-.71-8.95,2.21h-15.57s0-5.85,0-7.9,.13-6.39,2.99-7.96c0,0-.41,.73-.34,2.07,.16,2.3,2.08,3.96,4.55,3.96s4.5-1.8,4.5-4.26c0-2.29-1.86-5.83-7.32-5.83-4.8,0-13.73,2.49-13.73,19.67v.26h-16.53s0-5.85,0-7.9,.13-6.39,2.99-7.96c0,0-.41,.73-.34,2.07,.16,2.3,2.08,3.96,4.55,3.96s4.5-1.8,4.5-4.26c0-2.29-1.86-5.83-7.32-5.83-4.8,0-13.73,2.49-13.73,19.67v.18l-6.06,.8v4.15h5.9v16.59c0,4.15-.08,8.29-.16,12.44l-5.34,1.04v3.27h21.53v-3.27l-6.22-1.2c-.08-4.07-.16-8.21-.16-12.28v-16.59h16.21v16.59c0,4.15-.08,8.29-.16,12.44l-5.34,1.04v3.27h21.53v-3.27l-6.22-1.2c-.08-4.07-.16-8.21-.16-12.28v-16.59h15.45c.14,3.29,.21,6.88,.21,11.72v4.86c0,3.43,0,8.53-.08,12.44l-5.18,1.04v3.27h19.78v-3.27l-4.78-.96Z"/><path class="cls-2" d="M356.91,21.84v2.14l4.07,.64-5.83,16.32-5.99-16.37,4.23-.59v-2.14h-14.02v2.14l2.73,.43,10.17,24.77-.11,.32c-.96,2.73-2.35,5.19-4.28,7.01-.31-1.6-1.69-2.64-3.4-2.64-1.99,0-3.51,1.34-3.51,3.33s1.52,3.28,3.51,3.28h.08c4.66,0,7.38-3.85,10.49-12.04l9.15-23.86,3-.59v-2.14h-10.27Z"/><path class="cls-2" d="M423.66,21.84h-6.49s0-4.13,0-5.51,.09-4.31,2.02-5.38c0,0-.27,.49-.23,1.4,.11,1.56,1.4,2.67,3.08,2.67s3.04-1.22,3.04-2.88c0-1.54-1.25-3.94-4.94-3.94-3.24,0-9.27,1.68-9.27,13.29v.35l-4.09,.54v2.73h3.99v11.05c0,2.8-.05,5.6-.11,8.4l-3.61,.7v2.21h14.54v-2.21l-4.2-.81c-.05-2.75-.11-5.55-.11-8.3v-11.05h6.38v-3.26Z"/><path class="cls-2" d="M308.7,12.32c0-2.3,1.77-3.85,4.07-3.85s4.01,1.55,4.01,3.85-1.77,3.8-4.01,3.8-4.07-1.61-4.07-3.8Z"/><path class="cls-2" d="M195.61,12.32c0-2.3,1.77-3.85,4.07-3.85s4.01,1.55,4.01,3.85-1.77,3.8-4.01,3.8-4.07-1.61-4.07-3.8Z"/></svg>